<?xml version="1.0" encoding="UTF-8" standalone="no"?>
<!-- Created with Inkscape (http://www.inkscape.org/) -->

<svg
   width="84.414635mm"
   height="84.414635mm"
   viewBox="0 0 63.401 63.401"
   version="1.1"
   id="svg1"
   xml:space="preserve"
   xmlns="http://www.w3.org/2000/svg"
   xmlns:svg="http://www.w3.org/2000/svg"><defs
     id="defs1" /><rect
     style="fill:#9d2236;fill-opacity:1;stroke-width:0.988333"
     id="bg"
     width="63.401455"
     height="63.401455"
     x="0"
     y="0"
     rx="3.7553325"
     ry="3.7553325" /><path
     style="fill:#ffe7e7;fill-opacity:1"
     d="m 47.52331,15.434418 c 3.96963,1.0571 4.19163,1.97484 4.18475,17.29949 -0.008,18.284414 0.51609,17.577414 -13.03493,17.577414 -8.16738,0 -8.39051,-0.0406 -8.39051,-1.52719 0,-1.28954 0.59709,-1.38323 8.81545,-1.38323 11.01034,0 9.96997,1.53232 9.96997,-14.684384 0,-15.07269 0.12022,-14.68437 -4.54601,-14.68437 -3.06107,0 -4.39054,-1.13053 -2.90764,-2.47254 0.55414,-0.50148 4.20539,-0.57884 5.90892,-0.12519 z"
     id="borderright" /><path
     style="fill:#ffe7e7;fill-opacity:1"
     d="m 17.215742,49.848152 c -3.96963,-1.0571 -4.19163,-1.97484 -4.18475,-17.299494 0.008,-18.28441 -0.51609,-17.57741 13.03493,-17.57741 8.16738,0 8.39051,0.0406 8.39051,1.52719 0,1.28954 -0.59709,1.38323 -8.81545,1.38323 -11.01034,0 -9.96997,-1.53232 -9.96997,14.68438 0,15.072694 -0.12022,14.684374 4.54601,14.684374 3.06107,0 4.39054,1.13053 2.90764,2.47254 -0.55414,0.50148 -4.20539,0.57884 -5.90892,0.12519 z"
     id="borderleft" /><g
     id="path1"><path
       style="color:#000000;fill:#ffe7e7;-inkscape-stroke:none"
       d="m 45.435547,8.3300781 c -0.664591,-0.029705 -1.575602,0.00794 -2.5625,0.2714844 -1.973797,0.5270926 -4.30312,2.0375505 -5.529297,5.5117185 l -0.01758,0.04883 -0.0098,0.05078 c -0.780385,3.820019 -0.713894,6.106012 -0.576172,7.923828 0.137723,1.817815 0.330665,3.092898 -0.15039,5.234375 -0.322332,1.4349 -1.594324,2.260549 -3.359375,3.234375 -1.765052,0.973826 -3.926519,2.026847 -5.433594,4.082031 l -0.0059,0.0078 -0.0059,0.0098 c -1.991384,2.877362 -1.602648,5.852078 -1.304687,8.572266 0.295861,2.701026 0.514678,5.157693 -1.339844,7.738281 -1.313155,1.347958 -3.992311,2.314557 -6.345703,2.845703 -2.368215,0.534491 -4.365234,0.681641 -4.365234,0.681641 l 0.111328,1.498047 c 0,0 2.098628,-0.153474 4.585937,-0.714844 2.487309,-0.56137 5.39581,-1.479499 7.132813,-3.292969 l 0.03516,-0.03711 0.0293,-0.03906 c 2.207923,-3.026081 1.950731,-6.101831 1.65039,-8.84375 -0.299855,-2.737491 -0.618366,-5.136083 1.041016,-7.542969 1.242165,-1.689569 3.136976,-2.652884 4.941406,-3.648437 1.80686,-0.996893 3.619749,-2.095195 4.097656,-4.222656 0.529289,-2.356195 0.317368,-3.912039 0.183594,-5.677735 -0.132898,-1.754144 -0.197435,-3.803311 0.541016,-7.449218 1.081372,-3.021207 2.888882,-4.094506 4.480469,-4.519532 1.600015,-0.4272757 2.925781,-0.130859 2.925781,-0.130859 l 0.332031,-1.4667969 c 0,0 -0.41744,-0.095295 -1.082031,-0.125 z"
       id="path11" /><g
       id="g10"><path
         d="m 45.510065,5.7634922 7.764028,4.9922678 -9.157245,1.160922 C 46.06092,10.47287 46.640846,7.9116044 45.510065,5.7634922 Z"
         style="color:#000000;fill:#ffe7e7;fill-rule:evenodd;-inkscape-stroke:none"
         id="path10" /></g></g></svg>
